<svg width="14" height="17" viewBox="0 0 14 17" fill="none" xmlns="http://www.w3.org/2000/svg">
<path d="M7 0.519531C3.2785 0.519531 0.25 3.23797 0.25 6.58019C0.25 11.3291 6.3655 16.2324 6.62575 16.4384C6.733 16.5233 6.8665 16.5654 7 16.5654C7.1335 16.5654 7.267 16.5233 7.37425 16.439C7.6345 16.2324 13.75 11.3291 13.75 6.58019C13.75 3.23797 10.7215 0.519531 7 0.519531ZM7 9.87962C4.93225 9.87962 3.25 8.38 3.25 6.53673C3.25 4.69346 4.93225 3.19384 7 3.19384C9.06775 3.19384 10.75 4.69346 10.75 6.53673C10.75 8.38 9.06775 9.87962 7 9.87962Z" fill="#747474"/>
</svg>
